<svg width="659" height="516" viewBox="0 0 659 516" fill="none" xmlns="http://www.w3.org/2000/svg">
<g clip-path="url(#clip0_90_67)">
<path d="M407.218 481.258C375.573 494.094 343.039 499.992 309.307 498.895C270.851 497.644 234.663 487.723 201.143 468.878C153.645 442.173 119.106 403.596 97.7329 353.44C87.7469 330.006 81.7791 305.544 79.8687 280.065C75.1142 216.657 92.8133 160.02 132.49 110.735C166.512 68.4736 210.568 40.6105 263.67 29.2737C348.585 11.1453 423.004 32.6635 485.431 93.1429C519.901 126.537 541.773 167.605 550.33 214.648C565.341 297.175 543.334 369.218 484.789 429.618C462.813 452.291 436.636 468.931 407.218 481.258ZM227.35 402.151C277.395 432.595 330.128 437.561 383.556 414.12C438.995 389.797 472.275 346.354 482.088 286.182C488.577 246.397 481.214 208.746 459.968 174.51C430.514 127.045 387.485 99.6103 331.872 94.5295C283.863 90.1435 240.907 104.178 205.091 137.195C159.609 179.122 142.332 231.28 152.803 291.781C160.967 338.951 186.948 375.287 227.35 402.151Z" fill="#CBA25E"/>
<path d="M227.036 401.971C186.948 375.287 160.967 338.951 152.803 291.781C142.332 231.28 159.609 179.122 205.091 137.194C240.907 104.177 283.863 90.1434 331.872 94.5294C387.485 99.6101 430.514 127.045 459.968 174.509C481.214 208.746 488.577 246.397 482.088 286.182C472.275 346.354 438.995 389.797 383.556 414.12C330.128 437.561 277.395 432.595 227.036 401.971ZM338.263 130.1C330.978 129.454 323.677 128.115 316.412 128.285C291.15 128.878 267.372 135.093 246.019 149.032C205.323 175.599 185.146 213.799 184.404 261.876C184.017 286.935 191.116 310.564 204.922 331.793C231.421 372.543 269.59 392.547 317.659 393.646C334.339 394.028 350.721 390.536 366.331 384.129C396.303 371.829 419.244 351.585 434.306 322.93C447.946 296.978 452.461 269.26 447.929 240.209C444.007 215.061 433.577 192.844 416.884 173.706C396.194 149.986 370.004 135.851 338.263 130.1Z" fill="#FAF9FB"/>
<circle cx="317" cy="258" r="138" transform="rotate(180 317 258)" fill="#CBA25E"/>
<path d="M309.707 240.046C314.245 243.459 318.51 246.646 322.711 249.917C327.021 253.273 327.123 256.81 322.852 260.087C291.029 284.498 259.184 308.877 227.289 333.193C225.961 334.205 223.431 335.45 222.595 334.891C221.237 333.982 220.617 331.731 220.071 329.929C219.7 328.708 219.986 327.286 219.986 325.954C219.985 278.666 219.985 231.377 219.985 184.088C219.985 183.755 219.913 183.402 219.997 183.092C220.736 180.337 221.504 177.59 222.263 174.841C224.642 176.037 227.281 176.893 229.361 178.481C256.09 198.879 282.738 219.381 309.707 240.046Z" fill="#F9F9FA"/>
<path d="M423.707 240.046C428.244 243.459 432.51 246.646 436.71 249.917C441.021 253.273 441.123 256.81 436.851 260.087C405.029 284.498 373.183 308.877 341.289 333.193C339.96 334.205 337.431 335.45 336.595 334.891C335.237 333.982 334.616 331.731 334.07 329.929C333.7 328.708 333.986 327.286 333.986 325.954C333.985 278.666 333.985 231.377 333.985 184.088C333.985 183.755 333.913 183.402 333.997 183.092C334.736 180.337 335.503 177.59 336.263 174.841C338.642 176.037 341.281 176.893 343.361 178.481C370.089 198.879 396.738 219.381 423.707 240.046Z" fill="#F9F9FA"/>
<path d="M322 255.5L220.75 313.957L220.75 197.043L322 255.5Z" fill="#D9D9D9"/>
<path d="M440 255.5L338.75 313.957L338.75 197.043L440 255.5Z" fill="#D9D9D9"/>
</g>
<defs>
<clipPath id="clip0_90_67">
<rect width="659" height="516" fill="white"/>
</clipPath>
</defs>
</svg>
