<svg width="659" height="516" viewBox="0 0 659 516" fill="none" xmlns="http://www.w3.org/2000/svg">
<g clip-path="url(#clip0_90_56)">
<path d="M407.218 481.258C375.573 494.094 343.039 499.992 309.306 498.895C270.85 497.644 234.662 487.723 201.143 468.878C153.645 442.173 119.106 403.596 97.7326 353.44C87.7466 330.006 81.7789 305.544 79.8684 280.065C75.1139 216.657 92.813 160.02 132.489 110.735C166.512 68.4736 210.568 40.6105 263.67 29.2737C348.585 11.1453 423.004 32.6635 485.431 93.1429C519.9 126.537 541.773 167.605 550.33 214.648C565.341 297.175 543.334 369.218 484.789 429.618C462.813 452.291 436.636 468.931 407.218 481.258ZM227.349 402.151C277.394 432.595 330.128 437.561 383.556 414.12C438.995 389.797 472.275 346.354 482.088 286.182C488.577 246.397 481.213 208.746 459.968 174.51C430.514 127.045 387.484 99.6103 331.871 94.5295C283.863 90.1435 240.907 104.178 205.091 137.195C159.609 179.122 142.332 231.28 152.803 291.781C160.966 338.951 186.948 375.287 227.349 402.151Z" fill="#CBA25E"/>
<path d="M227.036 401.971C186.948 375.287 160.966 338.951 152.803 291.781C142.332 231.28 159.609 179.122 205.091 137.194C240.907 104.177 283.863 90.1434 331.871 94.5294C387.484 99.6101 430.514 127.045 459.968 174.509C481.213 208.746 488.577 246.397 482.088 286.182C472.275 346.354 438.995 389.797 383.556 414.12C330.128 437.561 277.394 432.595 227.036 401.971ZM338.262 130.1C330.978 129.454 323.677 128.115 316.412 128.285C291.149 128.878 267.372 135.093 246.019 149.032C205.323 175.599 185.146 213.799 184.404 261.876C184.017 286.935 191.116 310.564 204.922 331.793C231.421 372.543 269.59 392.547 317.659 393.646C334.338 394.028 350.721 390.536 366.331 384.129C396.303 371.829 419.244 351.585 434.305 322.93C447.946 296.978 452.46 269.26 447.929 240.209C444.007 215.061 433.577 192.844 416.884 173.706C396.194 149.986 370.004 135.851 338.262 130.1Z" fill="#FAF9FB"/>
<circle cx="317" cy="258" r="138" fill="#CBA25E"/>
<path d="M324.293 275.954C319.755 272.541 315.49 269.354 311.289 266.083C306.979 262.727 306.877 259.19 311.149 255.913C342.971 231.502 374.816 207.123 406.711 182.807C408.039 181.795 410.569 180.55 411.405 181.109C412.763 182.018 413.383 184.269 413.929 186.071C414.3 187.292 414.014 188.714 414.014 190.046C414.015 237.334 414.015 284.623 414.015 331.912C414.015 332.245 414.087 332.598 414.003 332.908C413.264 335.663 412.496 338.41 411.737 341.159C409.358 339.963 406.719 339.107 404.639 337.519C377.91 317.121 351.262 296.619 324.293 275.954Z" fill="#F9F9FA"/>
<path d="M210.293 275.954C205.755 272.541 201.49 269.354 197.289 266.083C192.979 262.727 192.877 259.19 197.149 255.913C228.971 231.502 260.816 207.123 292.711 182.807C294.039 181.795 296.569 180.55 297.405 181.109C298.763 182.018 299.383 184.269 299.929 186.071C300.3 187.292 300.014 188.714 300.014 190.046C300.015 237.334 300.015 284.623 300.015 331.912C300.015 332.245 300.087 332.598 300.003 332.908C299.264 335.663 298.496 338.41 297.737 341.159C295.358 339.963 292.719 339.107 290.639 337.519C263.91 317.121 237.262 296.619 210.293 275.954Z" fill="#F9F9FA"/>
<path d="M312 260.5L413.25 202.043L413.25 318.957L312 260.5Z" fill="#D9D9D9"/>
<path d="M194 260.5L295.25 202.043L295.25 318.957L194 260.5Z" fill="#D9D9D9"/>
</g>
<defs>
<clipPath id="clip0_90_56">
<rect width="659" height="516" fill="white"/>
</clipPath>
</defs>
</svg>
