<svg width="659" height="516" viewBox="0 0 659 516" fill="none" xmlns="http://www.w3.org/2000/svg">
<g clip-path="url(#clip0_90_9)">
<path d="M407.218 481.258C375.573 494.094 343.039 499.992 309.306 498.895C270.85 497.644 234.662 487.723 201.143 468.878C153.645 442.173 119.106 403.596 97.7326 353.44C87.7466 330.006 81.7789 305.544 79.8684 280.065C75.1139 216.657 92.813 160.02 132.489 110.735C166.512 68.4736 210.568 40.6105 263.67 29.2737C348.585 11.1453 423.004 32.6635 485.431 93.1429C519.9 126.537 541.773 167.605 550.33 214.648C565.341 297.175 543.334 369.218 484.789 429.618C462.813 452.291 436.636 468.931 407.218 481.258ZM227.349 402.151C277.394 432.595 330.128 437.561 383.556 414.12C438.995 389.797 472.275 346.354 482.088 286.182C488.577 246.397 481.213 208.746 459.968 174.51C430.514 127.045 387.484 99.6103 331.871 94.5295C283.863 90.1435 240.907 104.178 205.091 137.195C159.609 179.122 142.332 231.28 152.803 291.781C160.966 338.951 186.948 375.287 227.349 402.151Z" fill="#CBA25E"/>
<path d="M227.036 401.971C186.948 375.287 160.966 338.951 152.803 291.781C142.332 231.28 159.609 179.122 205.091 137.195C240.907 104.178 283.863 90.1435 331.871 94.5295C387.484 99.6103 430.514 127.045 459.968 174.51C481.213 208.746 488.577 246.397 482.088 286.182C472.275 346.354 438.995 389.797 383.556 414.12C330.128 437.561 277.394 432.595 227.036 401.971ZM338.262 130.101C330.978 129.454 323.677 128.115 316.412 128.286C291.149 128.878 267.372 135.093 246.019 149.032C205.323 175.599 185.146 213.799 184.404 261.876C184.017 286.935 191.116 310.564 204.922 331.793C231.421 372.543 269.59 392.547 317.659 393.646C334.338 394.028 350.721 390.536 366.331 384.129C396.303 371.829 419.244 351.585 434.305 322.93C447.946 296.978 452.46 269.26 447.929 240.209C444.007 215.061 433.577 192.844 416.884 173.706C396.194 149.986 370.004 135.851 338.262 130.101Z" fill="#FAF9FB"/>
<path d="M338.693 130.164C370.004 135.851 396.194 149.986 416.884 173.706C433.577 192.844 444.006 215.061 447.929 240.209C452.46 269.26 447.946 296.978 434.305 322.93C419.244 351.585 396.303 371.829 366.331 384.129C350.721 390.536 334.338 394.028 317.659 393.646C269.59 392.547 231.421 372.543 204.921 331.793C191.116 310.564 184.017 286.935 184.404 261.876C185.146 213.799 205.323 175.599 246.019 149.032C267.372 135.093 291.149 128.878 316.412 128.286C323.677 128.115 330.978 129.454 338.693 130.164ZM330.717 245.802C304.048 225.326 277.4 204.824 250.671 184.426C248.591 182.839 245.952 181.982 243.573 180.786C242.814 183.535 242.046 186.282 241.307 189.037C241.223 189.348 241.295 189.7 241.295 190.033C241.295 237.322 241.295 284.611 241.296 331.9C241.296 333.232 241.01 334.653 241.381 335.875C241.927 337.676 242.547 339.927 243.905 340.836C244.741 341.395 247.271 340.151 248.599 339.138C280.494 314.823 312.339 290.443 344.161 266.033C348.433 262.756 348.331 259.218 344.021 255.862C339.82 252.592 335.555 249.404 330.717 245.802ZM366.13 341.787C369.129 341.819 372.127 341.877 375.126 341.877C387.959 341.879 392.702 337.187 392.707 324.453C392.718 300.959 392.71 277.464 392.71 253.97C392.71 234.974 392.729 215.979 392.704 196.983C392.688 185.154 387.714 180.145 376.062 180.119C373.729 180.114 371.396 180.094 369.063 180.123C359.76 180.24 354.156 185.725 354.144 195.122C354.088 239.111 354.093 283.101 354.144 327.091C354.153 334.746 357.834 339.359 366.13 341.787Z" fill="#CBA25E"/>
<path d="M331.017 245.991C335.555 249.404 339.82 252.592 344.021 255.862C348.332 259.218 348.433 262.756 344.162 266.033C312.34 290.443 280.494 314.823 248.599 339.138C247.271 340.151 244.741 341.395 243.906 340.836C242.547 339.927 241.927 337.676 241.381 335.875C241.01 334.653 241.296 333.232 241.296 331.9C241.295 284.611 241.295 237.322 241.295 190.033C241.295 189.7 241.223 189.348 241.307 189.037C242.047 186.282 242.814 183.535 243.573 180.786C245.952 181.982 248.591 182.839 250.671 184.426C277.4 204.824 304.048 225.326 331.017 245.991Z" fill="#F9F9FA"/>
<path d="M365.707 341.73C357.834 339.359 354.153 334.746 354.144 327.091C354.093 283.101 354.088 239.111 354.144 195.122C354.156 185.725 359.76 180.239 369.063 180.123C371.396 180.094 373.729 180.114 376.062 180.119C387.714 180.145 392.688 185.154 392.704 196.983C392.729 215.979 392.71 234.974 392.71 253.97C392.71 277.464 392.718 300.959 392.707 324.453C392.702 337.186 387.959 341.879 375.126 341.877C372.127 341.877 369.129 341.819 365.707 341.73Z" fill="#F9F8F9"/>
</g>
<defs>
<clipPath id="clip0_90_9">
<rect width="659" height="516" fill="white"/>
</clipPath>
</defs>
</svg>
