<svg width="659" height="516" viewBox="0 0 659 516" fill="none" xmlns="http://www.w3.org/2000/svg">
<g clip-path="url(#clip0_90_24)">
<path d="M407.218 481.258C375.573 494.094 343.039 499.992 309.306 498.895C270.85 497.644 234.662 487.723 201.143 468.878C153.645 442.173 119.106 403.596 97.7326 353.44C87.7466 330.006 81.7789 305.544 79.8684 280.065C75.1139 216.657 92.813 160.02 132.489 110.735C166.512 68.4736 210.568 40.6105 263.67 29.2737C348.585 11.1453 423.004 32.6635 485.431 93.1429C519.9 126.537 541.773 167.605 550.33 214.648C565.341 297.175 543.334 369.218 484.789 429.618C462.813 452.291 436.636 468.931 407.218 481.258ZM227.349 402.151C277.394 432.595 330.128 437.561 383.556 414.12C438.995 389.797 472.275 346.354 482.088 286.182C488.577 246.397 481.213 208.746 459.968 174.51C430.514 127.045 387.484 99.6103 331.871 94.5295C283.863 90.1435 240.907 104.178 205.091 137.195C159.609 179.122 142.332 231.28 152.803 291.781C160.966 338.951 186.948 375.287 227.349 402.151Z" fill="#CBA25E"/>
<path d="M227.036 401.971C186.948 375.287 160.967 338.951 152.803 291.781C142.332 231.28 159.61 179.122 205.091 137.194C240.907 104.177 283.864 90.1434 331.872 94.5294C387.485 99.6101 430.515 127.045 459.968 174.509C481.214 208.746 488.577 246.397 482.089 286.182C472.275 346.354 438.995 389.797 383.556 414.12C330.128 437.561 277.395 432.595 227.036 401.971ZM338.263 130.1C330.978 129.454 323.678 128.115 316.412 128.285C291.15 128.878 267.372 135.093 246.02 149.032C205.323 175.599 185.147 213.799 184.404 261.876C184.017 286.935 191.117 310.564 204.922 331.793C231.421 372.543 269.59 392.547 317.66 393.646C334.339 394.028 350.722 390.536 366.332 384.129C396.304 371.829 419.245 351.585 434.306 322.93C447.946 296.978 452.461 269.26 447.93 240.209C444.007 215.061 433.577 192.844 416.885 173.706C396.195 149.986 370.004 135.851 338.263 130.1Z" fill="#FAF9FB"/>
<circle cx="317" cy="258" r="138" fill="#FAF9FB"/>
<path d="M353.603 341.622C345.731 339.251 342.049 334.638 342.04 326.983C341.989 282.993 341.984 239.004 342.04 195.014C342.052 185.617 347.657 180.132 356.96 180.015C359.292 179.986 361.625 180.006 363.958 180.012C375.61 180.037 380.584 185.046 380.6 196.875C380.625 215.871 380.607 234.866 380.607 253.862C380.607 277.356 380.614 300.851 380.604 324.345C380.598 337.079 375.856 341.771 363.022 341.769C360.024 341.769 357.025 341.711 353.603 341.622Z" fill="#CBA25E"/>
<path d="M355.603 341.622C347.731 339.251 344.049 334.638 344.04 326.983C343.989 282.993 343.984 239.004 344.04 195.014C344.052 185.617 349.657 180.132 358.96 180.015C361.292 179.986 363.625 180.006 365.958 180.012C377.61 180.037 382.584 185.046 382.6 196.875C382.625 215.871 382.607 234.866 382.607 253.862C382.607 277.356 382.614 300.851 382.604 324.345C382.598 337.079 377.856 341.771 365.022 341.769C362.024 341.769 359.025 341.711 355.603 341.622Z" fill="#CBA25E"/>
<path d="M262.603 341.622C254.731 339.251 251.049 334.638 251.04 326.983C250.989 282.993 250.984 239.004 251.04 195.014C251.052 185.617 256.657 180.132 265.96 180.015C268.292 179.986 270.625 180.006 272.958 180.012C284.61 180.037 289.584 185.046 289.6 196.875C289.625 215.871 289.607 234.866 289.607 253.862C289.607 277.356 289.614 300.851 289.604 324.345C289.598 337.079 284.856 341.771 272.022 341.769C269.024 341.769 266.025 341.711 262.603 341.622Z" fill="#CBA25E"/>
</g>
<defs>
<clipPath id="clip0_90_24">
<rect width="659" height="516" fill="white"/>
</clipPath>
</defs>
</svg>
