<svg width="659" height="516" viewBox="0 0 659 516" fill="none" xmlns="http://www.w3.org/2000/svg">
<g clip-path="url(#clip0_90_38)">
<path d="M407.218 481.258C375.573 494.094 343.039 499.992 309.307 498.895C270.851 497.644 234.663 487.723 201.143 468.878C153.645 442.173 119.106 403.596 97.7329 353.44C87.7469 330.006 81.7791 305.544 79.8687 280.065C75.1142 216.657 92.8133 160.02 132.49 110.735C166.512 68.4736 210.568 40.6105 263.67 29.2737C348.585 11.1453 423.004 32.6635 485.431 93.1429C519.901 126.537 541.773 167.605 550.33 214.648C565.341 297.175 543.334 369.218 484.789 429.618C462.813 452.291 436.636 468.931 407.218 481.258ZM227.35 402.151C277.395 432.595 330.128 437.561 383.556 414.12C438.995 389.797 472.275 346.354 482.088 286.182C488.577 246.397 481.214 208.746 459.968 174.51C430.514 127.045 387.485 99.6103 331.872 94.5295C283.863 90.1435 240.907 104.178 205.091 137.195C159.609 179.122 142.332 231.28 152.803 291.781C160.967 338.951 186.948 375.287 227.35 402.151Z" fill="#CBA25E"/>
<path d="M227.036 401.971C186.948 375.287 160.967 338.951 152.803 291.781C142.332 231.28 159.609 179.122 205.091 137.194C240.907 104.177 283.863 90.1434 331.872 94.5294C387.485 99.6101 430.514 127.045 459.968 174.509C481.214 208.746 488.577 246.397 482.088 286.182C472.275 346.354 438.995 389.797 383.556 414.12C330.128 437.561 277.395 432.595 227.036 401.971ZM338.263 130.1C330.978 129.454 323.677 128.115 316.412 128.285C291.15 128.878 267.372 135.093 246.019 149.032C205.323 175.599 185.146 213.799 184.404 261.876C184.017 286.935 191.116 310.564 204.922 331.793C231.421 372.543 269.59 392.547 317.659 393.646C334.339 394.028 350.721 390.536 366.331 384.129C396.303 371.829 419.244 351.585 434.306 322.93C447.946 296.978 452.461 269.26 447.929 240.209C444.007 215.061 433.577 192.844 416.884 173.706C396.194 149.986 370.004 135.851 338.263 130.1Z" fill="#FAF9FB"/>
<circle cx="317" cy="261" r="138" fill="#CBA25E"/>
<path d="M366.826 245.991C371.364 249.404 375.629 252.592 379.83 255.862C384.141 259.218 384.243 262.756 379.971 266.033C348.149 290.443 316.303 314.823 284.408 339.138C283.08 340.151 280.55 341.395 279.715 340.836C278.356 339.927 277.736 337.676 277.19 335.875C276.819 334.653 277.105 333.232 277.105 331.9C277.104 284.611 277.105 237.322 277.105 190.033C277.105 189.7 277.033 189.348 277.116 189.037C277.856 186.282 278.623 183.535 279.382 180.786C281.761 181.982 284.4 182.839 286.48 184.426C313.209 204.824 339.857 225.326 366.826 245.991Z" fill="#F9F9FA"/>
</g>
<defs>
<clipPath id="clip0_90_38">
<rect width="659" height="516" fill="white"/>
</clipPath>
</defs>
</svg>
