<svg width="659" height="516" viewBox="0 0 659 516" fill="none" xmlns="http://www.w3.org/2000/svg">
<g clip-path="url(#clip0_90_49)">
<path d="M407.218 481.258C375.573 494.094 343.039 499.992 309.307 498.895C270.851 497.644 234.663 487.723 201.143 468.878C153.645 442.173 119.106 403.596 97.7329 353.44C87.7469 330.006 81.7791 305.544 79.8687 280.065C75.1142 216.657 92.8133 160.02 132.49 110.735C166.512 68.4736 210.568 40.6105 263.67 29.2737C348.585 11.1453 423.004 32.6635 485.431 93.1429C519.901 126.537 541.773 167.605 550.33 214.648C565.341 297.175 543.334 369.218 484.789 429.618C462.813 452.291 436.636 468.931 407.218 481.258ZM227.35 402.151C277.395 432.595 330.128 437.561 383.556 414.12C438.995 389.797 472.275 346.354 482.088 286.182C488.577 246.397 481.214 208.746 459.968 174.51C430.514 127.045 387.485 99.6103 331.872 94.5295C283.863 90.1435 240.907 104.178 205.091 137.195C159.609 179.122 142.332 231.28 152.803 291.781C160.967 338.951 186.948 375.287 227.35 402.151Z" fill="#CBA25E"/>
<path d="M227.036 401.971C186.948 375.287 160.967 338.951 152.803 291.781C142.332 231.28 159.609 179.122 205.091 137.195C240.907 104.178 283.863 90.1435 331.872 94.5295C387.485 99.6103 430.514 127.045 459.968 174.51C481.214 208.746 488.577 246.397 482.088 286.182C472.275 346.354 438.995 389.797 383.556 414.12C330.128 437.561 277.395 432.595 227.036 401.971ZM338.263 130.101C330.978 129.454 323.677 128.115 316.412 128.286C291.15 128.878 267.372 135.093 246.019 149.032C205.323 175.599 185.146 213.799 184.404 261.876C184.017 286.935 191.116 310.564 204.922 331.793C231.421 372.543 269.59 392.547 317.659 393.646C334.339 394.028 350.721 390.536 366.331 384.129C396.303 371.829 419.244 351.585 434.306 322.93C447.946 296.978 452.461 269.26 447.929 240.209C444.007 215.061 433.577 192.844 416.884 173.706C396.194 149.986 370.004 135.851 338.263 130.101Z" fill="#FAF9FB"/>
<path d="M295.326 391.781C264.015 386.094 237.825 371.959 217.135 348.239C200.442 329.101 190.013 306.884 186.09 281.736C181.559 252.685 186.073 224.967 199.714 199.015C214.775 170.36 237.716 150.117 267.688 137.816C283.298 131.409 299.681 127.918 316.36 128.299C364.429 129.398 402.598 149.402 429.098 190.152C442.903 211.382 450.002 235.01 449.615 260.069C448.873 308.146 428.696 346.347 388 372.913C366.648 386.852 342.87 393.068 317.607 393.66C310.342 393.83 303.041 392.492 295.326 391.781ZM303.302 276.144C329.971 296.619 356.62 317.121 383.348 337.519C385.428 339.107 388.067 339.963 390.446 341.159C391.205 338.41 391.973 335.663 392.712 332.908C392.796 332.598 392.724 332.245 392.724 331.912C392.724 284.623 392.724 237.334 392.723 190.046C392.723 188.713 393.009 187.292 392.638 186.071C392.092 184.269 391.472 182.018 390.114 181.109C389.278 180.55 386.748 181.795 385.42 182.807C353.525 207.123 321.68 231.502 289.858 255.913C285.586 259.19 285.688 262.727 289.999 266.083C294.199 269.354 298.464 272.541 303.302 276.144ZM267.889 180.158C264.89 180.126 261.892 180.069 258.893 180.068C246.06 180.066 241.317 184.759 241.312 197.492C241.301 220.987 241.309 244.481 241.309 267.975C241.309 286.971 241.29 305.967 241.315 324.962C241.331 336.791 246.305 341.8 257.957 341.826C260.29 341.831 262.623 341.851 264.956 341.822C274.259 341.706 279.863 336.22 279.875 326.823C279.931 282.834 279.926 238.844 279.875 194.855C279.866 187.199 276.185 182.586 267.889 180.158Z" fill="#CBA25E"/>
<path d="M303.002 275.954C298.464 272.541 294.199 269.354 289.998 266.083C285.688 262.727 285.586 259.19 289.857 255.913C321.68 231.502 353.525 207.123 385.42 182.807C386.748 181.795 389.278 180.55 390.114 181.109C391.472 182.018 392.092 184.269 392.638 186.071C393.009 187.292 392.723 188.714 392.723 190.046C392.724 237.334 392.724 284.623 392.724 331.912C392.724 332.245 392.796 332.598 392.712 332.908C391.972 335.663 391.205 338.41 390.446 341.159C388.067 339.963 385.428 339.107 383.348 337.519C356.619 317.121 329.971 296.619 303.002 275.954Z" fill="#F9F9FA"/>
<path d="M268.313 180.215C276.185 182.587 279.866 187.199 279.875 194.855C279.926 238.844 279.931 282.834 279.875 326.824C279.863 336.22 274.259 341.706 264.956 341.822C262.623 341.851 260.29 341.831 257.957 341.826C246.305 341.8 241.331 336.791 241.315 324.962C241.29 305.967 241.309 286.971 241.309 267.976C241.309 244.481 241.301 220.987 241.312 197.492C241.317 184.759 246.06 180.066 258.893 180.068C261.892 180.069 264.89 180.126 268.313 180.215Z" fill="#F9F8F9"/>
</g>
<defs>
<clipPath id="clip0_90_49">
<rect width="659" height="516" fill="white"/>
</clipPath>
</defs>
</svg>
