<svg width="92" height="92" viewBox="0 0 92 92" fill="none" xmlns="http://www.w3.org/2000/svg">
<path d="M68.2 30C64 30 53.5 40.4 45.8 47.9C34.2 59.1 23.2 70 14.4 70H9C6.8 70 5 68.2 5 66C5 63.8 6.8 62 9 62H14.4C20 62 31.2 50.8 40.2 42.1C51.2 31.5 60.7 22 68.2 22H73.4L67.9 16.7C66.3 15.1 66.3 12.8 67.9 11.2C69.5 9.6 72 9.6 73.6 11.2L85.9 23.5C86.7 24.3 87.1 25.3 87.1 26.3C87.1 27.4 86.7 28.4 85.9 29.1L73.5 41.4C72.7 42.2 71.7 42.5 70.7 42.5C69.7 42.5 68.7 42.1 67.9 41.3C66.3 39.7 66.3 37.1 67.9 35.6L73.4 30H68.2ZM73.5 50.6C71.9 49 69.4 49 67.8 50.6C66.2 52.2 66.2 54.8 67.8 56.4L73.3 62H68.1C64.8 62 59.3 57.1 53.9 52.1C52.3 50.6 49.8 50.6 48.2 52.2C46.7 53.8 46.8 56.5 48.4 58C56.8 65.7 62.4 70 68.2 70H73.4L67.9 75.3C66.3 76.9 66.3 79.3 67.9 80.9C68.7 81.7 69.7 82 70.7 82C71.7 82 72.7 81.6 73.5 80.8L85.8 68.5C86.6 67.7 87 66.7 87 65.7C87 64.6 86.6 63.6 85.8 62.9L73.5 50.6ZM9 30H14.4C18.6 30 24.9 35.4 29.9 39.9C30.7 40.6 31.6 41 32.6 41C33.7 41 34.8 40.6 35.6 39.7C37.1 38.1 37 35.4 35.3 33.9C27.5 26.8 20.9 21.9 14.4 21.9H9C6.8 21.9 5 23.7 5 25.9C5 28.1 6.8 30 9 30Z" fill="#D8A353"/>
</svg>
