<svg width="191" height="197" viewBox="0 0 191 197" fill="none" xmlns="http://www.w3.org/2000/svg">
<path d="M188.597 52.5959C191.135 50.0575 191.135 45.942 188.597 43.4036L147.231 2.03786C144.692 -0.500541 140.577 -0.500536 138.039 2.03788C135.5 4.57629 135.5 8.69186 138.039 11.2303L174.808 47.9998L138.039 84.7694C135.5 87.3078 135.5 91.4234 138.039 93.9618C140.577 96.5002 144.693 96.5002 147.231 93.9617L188.597 52.5959ZM4.00028 41.4998C3.95729 41.4998 3.92584 41.4998 3.90584 41.4998C3.89591 41.4998 3.88851 41.4998 3.88387 41.4998C3.88141 41.4998 3.87857 41.4998 3.87679 41.4998C-2.6194 47.9515 3.82802 54.4996 3.87723 54.4998C3.88558 54.4998 3.93984 54.4998 4.03275 54.4998C4.22251 54.4998 4.58729 54.4998 5.11553 54.4998C6.17205 54.4998 7.88274 54.4998 10.1557 54.4998C14.7015 54.4998 21.4965 54.4999 29.805 54.4999C46.4222 54.4999 69.0941 54.4999 91.9379 54.4998C114.782 54.4998 137.797 54.4998 155.102 54.4998C163.754 54.4998 170.979 54.4998 176.041 54.4998C178.571 54.4998 180.561 54.4998 181.919 54.4998C182.597 54.4998 183.118 54.4998 183.469 54.4998C183.644 54.4998 183.777 54.4998 183.866 54.4998C183.911 54.4998 183.944 54.4998 183.967 54.4998C183.978 54.4998 183.986 54.4998 183.992 54.4998C183.995 54.4998 183.997 54.4998 183.998 54.4998C184 54.4998 184.001 54.4998 184.001 47.9998C184.001 41.4998 184 41.4998 183.998 41.4998C183.997 41.4998 183.995 41.4998 183.992 41.4998C183.986 41.4998 183.978 41.4998 183.967 41.4998C183.944 41.4998 183.911 41.4998 183.866 41.4998C183.777 41.4998 183.644 41.4998 183.469 41.4998C183.118 41.4998 182.597 41.4998 181.919 41.4998C180.561 41.4998 178.571 41.4998 176.041 41.4998C170.979 41.4998 163.754 41.4998 155.102 41.4998C137.797 41.4998 114.782 41.4998 91.9379 41.4998C69.0941 41.4999 46.4222 41.4999 29.805 41.4999C21.4965 41.4999 14.7016 41.4998 10.1557 41.4998C7.88279 41.4998 6.17214 41.4998 5.11567 41.4998C4.58741 41.4998 4.22279 41.4998 4.03321 41.4998C3.98581 41.4998 3.94942 41.4998 3.92417 41.4998C3.91153 41.4998 3.90177 41.4998 3.89486 41.4998C3.88697 41.4998 3.88464 41.4998 3.88514 41.4998C3.93289 41.5 10.3802 48.0481 3.88542 54.4998C3.885 54.4998 3.88494 54.4998 3.88668 54.4998C3.89044 54.4998 3.89714 54.4998 3.90705 54.4998C3.92672 54.4998 3.9579 54.4998 4.00086 54.4998L4.00028 41.4998Z" fill="#D8A353"/>
<path d="M188.597 153.596C191.135 151.058 191.135 146.942 188.597 144.404L147.231 103.038C144.692 100.499 140.577 100.499 138.039 103.038C135.5 105.576 135.5 109.692 138.039 112.23L174.808 149L138.039 185.769C135.5 188.308 135.5 192.423 138.039 194.962C140.577 197.5 144.693 197.5 147.231 194.962L188.597 153.596ZM4.00028 142.5C3.95729 142.5 3.92584 142.5 3.90584 142.5C3.89591 142.5 3.88851 142.5 3.88387 142.5C3.88141 142.5 3.87857 142.5 3.87679 142.5C-2.6194 148.951 3.82802 155.5 3.87723 155.5C3.88558 155.5 3.93984 155.5 4.03275 155.5C4.22251 155.5 4.58729 155.5 5.11553 155.5C6.17205 155.5 7.88274 155.5 10.1557 155.5C14.7015 155.5 21.4965 155.5 29.805 155.5C46.4222 155.5 69.0941 155.5 91.9379 155.5C114.782 155.5 137.797 155.5 155.102 155.5C163.754 155.5 170.979 155.5 176.041 155.5C178.571 155.5 180.561 155.5 181.919 155.5C182.597 155.5 183.118 155.5 183.469 155.5C183.644 155.5 183.777 155.5 183.866 155.5C183.911 155.5 183.944 155.5 183.967 155.5C183.978 155.5 183.986 155.5 183.992 155.5C183.995 155.5 183.997 155.5 183.998 155.5C184 155.5 184.001 155.5 184.001 149C184.001 142.5 184 142.5 183.998 142.5C183.997 142.5 183.995 142.5 183.992 142.5C183.986 142.5 183.978 142.5 183.967 142.5C183.944 142.5 183.911 142.5 183.866 142.5C183.777 142.5 183.644 142.5 183.469 142.5C183.118 142.5 182.597 142.5 181.919 142.5C180.561 142.5 178.571 142.5 176.041 142.5C170.979 142.5 163.754 142.5 155.102 142.5C137.797 142.5 114.782 142.5 91.9379 142.5C69.0941 142.5 46.4222 142.5 29.805 142.5C21.4965 142.5 14.7016 142.5 10.1557 142.5C7.88279 142.5 6.17214 142.5 5.11567 142.5C4.58741 142.5 4.22279 142.5 4.03321 142.5C3.98581 142.5 3.94942 142.5 3.92417 142.5C3.91153 142.5 3.90177 142.5 3.89486 142.5C3.88697 142.5 3.88464 142.5 3.88514 142.5C3.93289 142.5 10.3802 149.048 3.88542 155.5C3.885 155.5 3.88494 155.5 3.88668 155.5C3.89044 155.5 3.89714 155.5 3.90705 155.5C3.92672 155.5 3.9579 155.5 4.00086 155.5L4.00028 142.5Z" fill="#D8A353"/>
</svg>
